# xmcd
#
# Track frame offsets:
#	150
#	16172
#	31822
#	47658
#	65686
#	83870
#	97065
#	120400
#	136625
#	148577
#	165716
#	178312
#	210388
#
# Disc length: 4440 seconds
#
# Revision: 1
# Processed by: cddbd v1.5.1PL0 Copyright (c) Steve Scherf et al.
# Submitted via: audiograbber 1.83.01
#
DISCID=ab11560d
DTITLE=Ricky Fanté - Rewind
DYEAR=2005
DGENRE=Blues
TTITLE0=I let you go
TTITLE1=It ain't easy (on your own)
TTITLE2=Smile
TTITLE3=Why
TTITLE4=Are you lonely too?
TTITLE5=Love doesn't live here no more
TTITLE6=It's over now
TTITLE7=He don't love you
TTITLE8=My song
TTITLE9=If it's love
TTITLE10=Oh yeah
TTITLE11=A woman's touch
TTITLE12=Dati Traccia
EXTD=
EXTT0=
EXTT1=
EXTT2=
EXTT3=
EXTT4=
EXTT5=
EXTT6=
EXTT7=
EXTT8=
EXTT9=
EXTT10=
EXTT11=
EXTT12=
PLAYORDER=
